<?xml version="1.0" standalone="no"?>
<!DOCTYPE svg PUBLIC "-//W3C//DTD SVG 20010904//EN"
 "http://www.w3.org/TR/2001/REC-SVG-20010904/DTD/svg10.dtd">
<svg version="1.0" xmlns="http://www.w3.org/2000/svg"
 width="1220.000000pt" height="551.000000pt" viewBox="0 0 1220.000000 551.000000"
 preserveAspectRatio="xMidYMid meet">

<g transform="translate(0.000000,551.000000) scale(0.100000,-0.100000)"
fill="#000000" stroke="none">
<path d="M1684 4984 c-63 -31 -86 -133 -43 -188 62 -78 190 -75 239 7 72 117
-67 245 -196 181z m126 -46 c27 -44 25 -55 -11 -89 -38 -35 -62 -37 -94 -4
-32 31 -32 65 0 99 35 38 79 36 105 -6z"/>
<path d="M7045 4819 c-156 -26 -281 -115 -319 -226 -18 -52 -21 -160 -6 -214
28 -99 153 -175 375 -229 174 -42 231 -68 251 -115 14 -33 13 -40 -3 -73 -25
-52 -77 -75 -178 -80 -105 -5 -208 17 -313 68 l-83 40 -43 -93 -43 -92 40 -27
c22 -14 83 -41 136 -59 84 -28 113 -33 231 -37 156 -5 228 6 316 47 81 38 137
90 171 159 24 48 28 69 27 137 0 95 -20 141 -85 199 -57 52 -119 78 -302 125
-218 56 -257 77 -257 144 0 81 60 120 196 125 99 4 205 -18 285 -59 l40 -20
19 43 c10 24 28 67 39 95 l21 53 -25 16 c-96 63 -337 99 -490 73z"/>
<path d="M8085 4824 c-112 -18 -212 -64 -272 -126 -62 -64 -87 -127 -87 -219
1 -176 91 -252 391 -330 224 -58 253 -76 253 -154 0 -49 -42 -89 -112 -105
-112 -27 -309 9 -426 77 -25 15 -47 23 -49 18 -2 -6 -21 -48 -42 -95 -22 -47
-37 -88 -35 -91 8 -14 152 -79 209 -94 91 -25 322 -31 409 -11 135 32 226 99
277 205 28 57 31 176 7 232 -45 103 -137 158 -358 214 -239 60 -270 78 -270
157 0 48 40 92 98 108 94 26 252 6 368 -45 l55 -24 14 32 c7 17 24 60 38 95
l26 62 -51 26 c-77 39 -191 65 -308 69 -58 2 -118 1 -135 -1z"/>
<path d="M3370 4255 l0 -555 130 0 130 0 0 149 0 148 173 6 c112 3 193 11 231
21 214 59 334 244 296 456 -22 124 -91 215 -204 270 -104 51 -170 60 -478 60
l-278 0 0 -555z m572 335 c106 -30 166 -154 123 -257 -20 -48 -41 -70 -90 -96
-34 -18 -62 -22 -192 -25 l-153 -4 0 196 0 196 138 0 c75 0 154 -5 174 -10z"/>
<path d="M4520 4256 l0 -556 130 0 130 0 0 155 0 155 119 0 119 0 106 -155
107 -155 134 0 c74 0 135 2 135 5 0 3 -52 79 -115 170 -63 90 -115 168 -114
172 0 4 27 25 60 47 111 71 166 191 156 342 -10 172 -105 289 -280 347 -56 19
-91 21 -374 25 l-313 4 0 -556z m575 333 c88 -24 135 -88 135 -181 0 -76 -32
-136 -90 -168 -42 -23 -57 -25 -202 -28 l-158 -4 0 196 0 196 138 0 c75 0 155
-5 177 -11z"/>
<path d="M5700 4255 l0 -555 430 0 430 0 0 100 0 100 -305 0 -305 0 0 130 0
130 260 0 260 0 0 100 0 100 -260 0 -261 0 3 123 3 122 293 3 292 2 0 100 0
100 -420 0 -420 0 0 -555z"/>
<path d="M897 4679 c-86 -11 -205 -51 -277 -92 -30 -17 -91 -67 -136 -111
-312 -311 -255 -800 121 -1046 93 -60 206 -100 305 -106 121 -8 120 -8 120
-58 0 -55 -42 -112 -135 -185 -36 -29 -69 -59 -71 -66 -10 -25 27 -114 61
-150 l32 -35 166 0 c91 0 177 4 190 9 36 14 89 125 85 177 -3 36 -8 42 -70 79
-135 81 -160 123 -166 275 l-4 105 54 29 c246 134 1050 616 1055 632 2 6 -16
21 -39 32 -24 11 -196 93 -383 182 -187 90 -424 200 -528 246 -206 92 -249
101 -380 83z m246 -368 c93 -41 151 -133 151 -236 0 -75 -25 -127 -90 -184
-106 -93 -247 -91 -354 6 -56 49 -83 111 -82 183 3 188 201 310 375 231z m2
-1212 c27 -22 66 -49 87 -60 20 -10 40 -23 43 -29 4 -6 -5 -31 -20 -55 l-26
-45 -139 0 -139 0 -25 42 -25 42 57 37 c31 20 73 53 91 73 19 20 37 36 41 36
3 0 28 -18 55 -41z"/>
<path d="M997 4223 c-15 -14 -6 -44 23 -76 17 -20 30 -46 30 -61 0 -39 51
-136 71 -136 27 0 78 57 85 95 11 62 -20 118 -96 168 -24 17 -100 23 -113 10z"/>
<path d="M1806 4675 c-4 -12 -30 -15 -146 -15 -77 0 -140 -3 -140 -6 0 -14 56
-77 81 -90 16 -8 56 -14 96 -14 37 0 97 -3 133 -6 60 -6 67 -9 87 -40 18 -28
19 -35 7 -45 -22 -18 -17 -56 12 -78 23 -18 41 -21 120 -21 l93 0 40 -52 c21
-29 51 -77 65 -106 24 -47 26 -62 24 -140 l-3 -87 -85 -51 c-47 -28 -252 -151
-456 -272 -204 -121 -385 -232 -402 -247 -39 -32 -56 -83 -48 -140 11 -70 41
-105 130 -149 l79 -39 -7 -344 c-4 -229 -10 -350 -18 -362 -31 -49 -43 -51
-408 -51 l-341 0 -16 -37 c-26 -62 -28 -131 -4 -193 34 -89 31 -88 101 -31 91
73 116 78 395 85 234 6 241 7 292 33 29 14 83 57 120 94 l68 69 361 0 361 0 8
920 7 919 -52 83 c-29 46 -73 111 -98 146 l-46 62 -88 0 -88 0 0 40 c0 39 1
40 34 40 37 0 46 12 46 60 0 19 -10 38 -27 55 -27 24 -33 25 -154 25 -104 0
-128 -3 -133 -15z"/>
<path d="M3616 3264 c-128 -28 -232 -100 -282 -195 -23 -44 -31 -182 -14 -235
31 -96 133 -169 300 -214 227 -60 265 -72 290 -90 38 -27 50 -66 36 -110 -35
-109 -292 -119 -494 -19 -46 22 -85 39 -86 37 -1 -1 -20 -44 -43 -95 l-41 -91
71 -38 c108 -56 191 -76 347 -81 101 -4 152 -1 203 11 133 31 227 97 274 194
24 48 28 69 27 137 0 95 -20 141 -85 199 -58 53 -120 79 -303 126 -217 56
-256 78 -256 144 0 59 46 106 119 121 95 20 265 -6 362 -56 l40 -20 19 43 c10
24 28 67 39 95 l21 53 -25 16 c-107 70 -356 102 -519 68z"/>
<path d="M11415 3264 c-89 -17 -218 -81 -283 -139 -145 -130 -212 -350 -168
-548 26 -115 68 -191 155 -277 123 -122 246 -170 442 -170 150 0 272 32 397
104 l52 31 0 227 0 228 -115 0 -115 0 0 -164 0 -165 -57 -22 c-81 -30 -215
-31 -294 0 -79 30 -142 88 -181 169 -31 62 -33 74 -33 167 0 87 4 107 27 156
55 119 162 189 301 197 106 6 190 -17 267 -74 l60 -44 79 75 79 74 -49 46
c-128 119 -353 171 -564 129z"/>
<path d="M4250 3155 l0 -105 180 0 180 0 0 -450 0 -450 125 0 125 0 0 450 0
450 180 0 180 0 0 105 0 105 -485 0 -485 0 0 -105z"/>
<path d="M5603 3143 c-29 -65 -140 -314 -246 -553 -107 -239 -194 -437 -192
-440 2 -3 61 -3 131 0 l128 5 50 118 49 117 253 0 c295 0 257 17 320 -142 l39
-98 133 0 c123 0 133 1 128 18 -3 9 -114 258 -245 552 l-240 535 -128 3 -128
3 -52 -118z m268 -350 l86 -208 -89 -3 c-48 -1 -128 -1 -176 0 l-89 3 86 208
c47 114 88 207 91 207 3 0 44 -93 91 -207z"/>
<path d="M6530 2705 l0 -555 120 0 120 0 2 321 3 321 160 -263 161 -264 56 -3
57 -3 165 278 166 278 0 -332 0 -333 120 0 120 0 0 555 0 556 -106 -3 -106 -3
-197 -333 c-109 -183 -201 -336 -207 -342 -5 -5 -86 119 -215 333 l-207 342
-106 3 -106 3 0 -556z"/>
<path d="M8050 2705 l0 -555 130 0 130 0 0 149 0 148 173 6 c112 3 193 11 231
21 127 35 218 108 270 216 28 60 31 73 30 165 0 80 -5 112 -23 158 -29 73
-105 152 -184 190 -102 49 -164 57 -474 57 l-283 0 0 -555z m613 321 c100 -49
129 -211 53 -294 -49 -55 -90 -66 -253 -70 l-153 -4 0 197 0 197 158 -4 c129
-3 164 -6 195 -22z"/>
<path d="M9212 2704 l3 -555 120 0 120 0 3 555 2 556 -125 0 -125 0 2 -556z"/>
<path d="M9730 2706 l0 -555 121 -3 c66 -2 123 -1 125 1 2 2 4 155 4 340 l1
336 34 -40 c19 -22 144 -174 277 -337 l243 -297 108 0 107 -1 0 555 0 555
-125 0 -125 0 -2 -337 -3 -338 -275 337 -275 337 -107 1 -108 0 0 -554z"/>
<path d="M706 2499 c-3 -34 -6 -75 -6 -90 l0 -29 355 0 355 0 0 90 0 90 -349
0 -348 0 -7 -61z"/>
<path d="M1678 2165 c-14 -24 -44 -55 -65 -68 -37 -25 -44 -25 -333 -34 -276
-9 -298 -11 -348 -33 -62 -27 -137 -105 -152 -158 -6 -20 -24 -188 -41 -372
-16 -184 -34 -345 -39 -357 -8 -20 -17 -23 -62 -23 -116 -1 -168 -30 -168 -96
l0 -34 211 0 211 0 32 33 c18 17 37 40 42 49 9 16 70 17 844 20 l835 3 52 -52
52 -53 216 0 215 0 0 38 c0 56 -34 84 -106 90 -56 5 -56 5 -93 62 -20 32 -157
277 -306 544 l-270 486 -350 0 -350 -1 -27 -44z"/>
<path d="M3325 1797 c-3 -6 -4 -167 -3 -357 l3 -345 62 -3 62 -3 3 341 c2 188
0 350 -4 361 -6 16 -17 19 -63 19 -35 0 -57 -5 -60 -13z"/>
<path d="M3687 1804 c-4 -4 -7 -167 -7 -361 l0 -354 63 3 62 3 5 220 5 220 89
-165 c49 -91 103 -190 121 -220 l31 -55 60 0 59 0 0 355 0 355 -62 3 c-35 2
-64 2 -65 0 -1 -2 -4 -100 -8 -219 l-5 -217 -115 217 -115 216 -55 3 c-31 2
-59 0 -63 -4z"/>
<path d="M4405 1797 c-3 -6 -4 -167 -3 -357 l3 -345 180 0 c168 0 182 2 215
22 69 43 75 63 78 298 5 250 -3 300 -53 344 -19 16 -51 35 -72 40 -56 16 -342
14 -348 -2z m321 -131 c11 -16 14 -63 14 -218 0 -243 3 -238 -120 -238 l-80 0
0 241 0 241 86 -3 c71 -3 88 -7 100 -23z"/>
<path d="M5084 1797 c-3 -8 -4 -147 -2 -310 3 -282 4 -297 24 -324 38 -51 79
-67 183 -71 127 -6 191 9 230 54 17 19 33 44 36 57 3 12 4 153 3 312 l-3 290
-60 0 -60 0 -5 -283 c-6 -330 0 -312 -110 -312 -110 0 -105 -16 -107 297 -1
147 -4 276 -7 286 -3 14 -15 17 -60 17 -38 0 -58 -4 -62 -13z"/>
<path d="M5867 1796 c-82 -30 -107 -77 -107 -197 0 -152 43 -192 235 -219 89
-13 120 -41 112 -103 -3 -22 -10 -44 -16 -50 -6 -6 -40 -13 -76 -15 -78 -5
-115 13 -115 56 0 46 -11 53 -76 50 l-59 -3 0 -62 c0 -70 19 -104 76 -138 42
-25 218 -34 283 -15 93 27 138 117 121 240 -14 103 -77 151 -232 175 -107 18
-128 36 -119 100 9 54 36 75 96 75 76 0 97 -12 107 -62 l9 -43 61 -3 c70 -3
78 5 67 75 -8 54 -39 101 -84 127 -45 27 -223 34 -283 12z"/>
<path d="M6388 1759 c-1 -28 -1 -55 2 -59 3 -5 39 -10 80 -12 l75 -3 5 -295 5
-295 65 0 65 0 3 298 2 297 81 0 80 0 -3 58 -3 57 -227 3 -226 2 -4 -51z"/>
<path d="M7015 1797 c-3 -6 -4 -167 -3 -357 l3 -345 59 -3 c41 -2 62 1 67 10
5 7 9 68 9 136 l0 122 39 0 c21 0 43 -6 48 -12 6 -7 34 -65 63 -128 28 -63 57
-118 63 -122 7 -4 40 -8 75 -8 49 0 62 3 62 15 0 8 -27 70 -61 137 l-61 121
32 25 c49 39 70 93 70 187 0 44 -5 97 -10 117 -13 44 -66 93 -117 107 -56 16
-332 14 -338 -2z m311 -132 c9 -12 14 -45 14 -91 0 -97 -8 -104 -111 -104
l-79 0 0 111 0 111 81 -4 c66 -3 83 -7 95 -23z"/>
<path d="M7695 1798 c-3 -7 -4 -168 -3 -358 l3 -345 65 0 65 0 0 355 0 355
-63 3 c-44 2 -64 -1 -67 -10z"/>
<path d="M8055 1798 c-3 -7 -4 -168 -3 -358 l3 -345 200 0 200 0 0 55 0 55
-132 3 -133 3 0 89 0 90 104 0 c119 0 129 5 124 72 l-3 43 -110 5 -110 5 -3
87 -3 87 133 3 133 3 0 55 0 55 -198 3 c-153 2 -199 0 -202 -10z"/>
<path d="M8745 1796 c-83 -31 -122 -110 -111 -225 14 -133 56 -164 270 -196
21 -4 49 -17 63 -31 21 -21 24 -31 19 -62 -10 -53 -37 -72 -101 -72 -82 0
-102 11 -112 62 l-9 43 -61 3 c-70 3 -76 -3 -66 -74 8 -61 39 -104 93 -132 41
-21 56 -23 160 -20 130 3 167 17 208 79 21 31 23 43 20 131 -2 78 -7 102 -24
125 -29 41 -97 71 -197 86 -111 18 -131 34 -124 97 7 59 33 80 102 80 63 0 90
-19 103 -70 8 -35 8 -35 71 -38 l63 -3 -4 65 c-4 74 -24 109 -79 141 -45 26
-223 33 -284 11z"/>
<path d="M4626 558 c-9 -12 -16 -32 -16 -44 0 -13 -8 -24 -17 -27 -17 -4 -17
-5 0 -6 14 -1 17 -11 17 -70 0 -46 -4 -71 -12 -74 -7 -3 12 -5 42 -5 30 0 47
2 38 5 -15 4 -18 16 -18 73 0 63 2 69 23 73 l22 4 -23 2 c-20 1 -23 5 -20 38
2 27 8 39 21 41 10 2 17 -3 17 -12 0 -10 9 -16 21 -16 14 0 19 5 17 18 -2 13
-15 18 -50 20 -39 3 -49 -1 -62 -20z"/>
<path d="M3020 558 c0 -3 4 -8 10 -10 5 -1 29 -52 52 -112 24 -59 47 -109 51
-110 5 0 21 31 36 69 14 39 31 69 36 68 5 -1 20 -32 35 -68 14 -37 29 -68 34
-68 5 -1 28 47 51 106 23 60 47 112 54 117 9 5 1 9 -23 12 -34 4 -50 -6 -24
-14 10 -4 8 -20 -8 -69 -11 -35 -24 -64 -29 -64 -11 0 -47 106 -42 127 5 19
-33 28 -73 17 -14 -4 -19 -7 -13 -8 22 -2 26 -48 7 -96 -9 -25 -20 -42 -24
-38 -14 15 -42 114 -36 128 3 8 2 15 -2 16 -44 4 -92 3 -92 -3z"/>
<path d="M6694 555 c-4 -9 -2 -21 4 -27 15 -15 44 -1 40 19 -4 23 -36 29 -44
8z"/>
<path d="M7944 555 c-4 -9 -2 -21 4 -27 15 -15 44 -1 40 19 -4 23 -36 29 -44
8z"/>
<path d="M5098 506 c-21 -19 -24 -26 -13 -30 11 -4 15 -23 15 -75 0 -54 4 -70
16 -75 24 -9 38 -7 59 7 17 13 16 14 -6 13 -23 -1 -24 2 -27 66 -3 66 -3 67
25 71 l28 4 -27 2 c-21 1 -28 6 -28 21 0 26 -9 25 -42 -4z"/>
<path d="M7815 505 c-16 -13 -25 -24 -18 -25 8 0 13 -24 15 -71 3 -80 16 -97
61 -85 30 7 37 25 10 22 -15 -1 -18 9 -21 66 -3 62 -1 67 20 71 l23 4 -22 2
c-16 1 -23 7 -23 21 0 26 -9 25 -45 -5z"/>
<path d="M3405 465 c-47 -46 -26 -127 36 -140 35 -8 85 9 93 32 5 11 2 13 -11
8 -54 -23 -93 -7 -93 36 0 16 7 19 55 19 47 0 55 3 55 18 0 53 -92 71 -135 27z
m89 -1 c11 -29 6 -34 -29 -34 -36 0 -46 15 -23 38 17 17 45 15 52 -4z"/>
<path d="M3665 479 c-11 -4 -14 -8 -7 -8 8 -1 12 -21 12 -65 0 -43 -4 -66 -12
-69 -7 -2 4 -6 25 -8 20 -3 43 -1 50 3 9 6 9 8 0 8 -9 0 -13 19 -13 60 0 47 4
62 16 67 11 4 22 -1 30 -12 17 -22 18 -97 3 -112 -13 -13 29 -23 57 -12 10 4
13 8 7 8 -21 1 -17 117 3 125 9 4 23 1 30 -5 18 -15 19 -115 2 -122 -7 -3 7
-6 32 -6 25 0 40 3 34 7 -6 4 -12 36 -13 71 -1 36 -4 68 -7 73 -8 12 -68 10
-82 -4 -8 -8 -15 -8 -24 0 -15 12 -113 13 -143 1z"/>
<path d="M4002 474 c-25 -17 -30 -54 -7 -54 13 0 19 11 17 32 -2 12 27 30 38
23 5 -3 10 -19 10 -36 0 -24 -4 -29 -23 -29 -53 0 -86 -52 -51 -81 12 -10 22
-10 47 -1 21 8 35 8 41 2 15 -15 42 -12 56 6 11 12 11 15 -1 12 -11 -2 -15 11
-17 57 -2 32 -8 65 -14 72 -14 18 -69 16 -96 -3z m58 -99 c0 -18 -5 -25 -20
-25 -20 0 -28 28 -13 43 15 16 33 6 33 -18z"/>
<path d="M4166 481 c-18 -7 -18 -8 -3 -14 13 -5 17 -19 17 -67 0 -41 -4 -60
-12 -61 -7 0 0 -5 16 -9 17 -6 36 -5 45 0 10 6 11 10 4 10 -20 0 -18 116 2
124 36 13 47 -4 43 -70 -3 -69 4 -77 52 -63 14 4 19 7 13 8 -9 1 -13 19 -13
57 0 73 -12 94 -53 94 -18 0 -38 -5 -45 -12 -9 -9 -12 -9 -12 0 0 13 -25 15
-54 3z"/>
<path d="M4373 479 c13 -8 17 -24 17 -75 0 -59 2 -65 25 -76 19 -8 31 -8 50 0
16 7 25 8 25 2 0 -6 12 -8 28 -4 30 7 54 24 34 24 -8 0 -12 22 -12 70 l0 70
-37 -1 c-21 0 -32 -3 -25 -6 8 -3 12 -27 12 -69 0 -61 -1 -64 -24 -64 -29 0
-36 16 -36 86 l0 54 -37 0 c-31 -1 -35 -3 -20 -11z"/>
<path d="M4739 469 c-23 -23 -21 -42 4 -47 12 -3 17 4 17 21 0 26 27 44 43 28
18 -18 3 -54 -26 -62 -39 -11 -57 -28 -57 -55 0 -29 37 -41 70 -24 16 9 25 9
33 1 15 -15 30 -14 53 4 16 13 16 14 2 9 -16 -5 -18 1 -18 44 0 28 -4 62 -10
76 -8 22 -16 26 -50 26 -27 0 -47 -7 -61 -21z m71 -94 c0 -18 -5 -25 -20 -25
-20 0 -28 28 -13 43 15 16 33 6 33 -18z"/>
<path d="M4930 470 c-72 -72 15 -193 98 -134 32 22 27 34 -9 21 -28 -11 -33
-10 -51 13 -15 18 -18 33 -14 59 8 53 42 66 61 23 12 -27 35 -29 35 -4 0 28
-21 42 -62 42 -25 0 -45 -7 -58 -20z"/>
<path d="M5208 483 c8 -3 12 -27 12 -67 0 -50 4 -67 20 -81 17 -15 26 -17 55
-8 19 6 35 7 37 3 4 -11 58 0 58 11 0 5 -4 9 -10 9 -6 0 -10 30 -10 70 l0 70
-37 0 c-32 0 -35 -2 -19 -13 13 -10 17 -24 14 -67 -3 -51 -5 -55 -28 -55 -24
0 -25 3 -28 68 l-3 67 -37 -1 c-20 0 -31 -3 -24 -6z"/>
<path d="M5426 481 c-18 -7 -18 -8 -3 -14 13 -5 17 -19 17 -66 0 -38 -4 -61
-12 -64 -7 -3 12 -5 42 -5 30 0 45 3 32 5 -21 4 -23 9 -20 61 l3 57 34 0 c19
0 36 6 38 12 7 19 -27 28 -50 13 -15 -9 -22 -10 -25 -1 -4 12 -27 13 -56 2z"/>
<path d="M5595 464 c-24 -26 -32 -65 -19 -99 18 -46 122 -56 144 -15 11 21 -3
29 -15 10 -18 -29 -85 5 -85 43 0 14 11 17 60 17 l60 0 -11 27 c-13 35 -26 43
-72 43 -28 0 -44 -7 -62 -26z m89 0 c11 -29 6 -34 -29 -34 -38 0 -40 2 -25 31
13 23 46 25 54 3z"/>
<path d="M5832 476 c8 -8 29 -47 47 -88 26 -61 30 -79 22 -101 -12 -30 -23
-34 -41 -12 -14 16 -30 11 -30 -10 0 -18 35 -28 57 -16 10 5 38 57 62 115 24
59 51 111 60 116 12 7 6 9 -24 10 -28 0 -36 -3 -26 -9 13 -8 13 -15 1 -51 -7
-22 -17 -43 -21 -46 -4 -2 -15 17 -25 42 -15 39 -15 47 -3 55 9 6 -4 9 -39 9
-46 0 -51 -2 -40 -14z"/>
<path d="M6062 483 c-17 -6 -42 -57 -42 -83 0 -12 13 -35 29 -51 40 -40 82
-39 123 1 26 27 30 36 25 68 -4 20 -16 45 -28 55 -20 16 -78 22 -107 10z m78
-29 c15 -39 12 -79 -8 -104 l-19 -23 -21 21 c-24 24 -28 64 -12 106 13 35 47
35 60 0z"/>
<path d="M6228 483 c8 -3 12 -27 12 -68 0 -85 27 -113 82 -84 14 7 23 8 27 1
7 -12 61 -4 61 9 0 5 -4 9 -10 9 -6 0 -10 30 -10 70 l0 70 -37 0 c-32 0 -35
-2 -19 -13 13 -10 17 -24 14 -67 -3 -51 -5 -55 -28 -55 -24 0 -25 3 -28 68
l-3 67 -37 -1 c-20 0 -31 -3 -24 -6z"/>
<path d="M6446 481 c-18 -7 -18 -8 -3 -14 13 -5 17 -19 17 -66 0 -38 -4 -61
-12 -64 -7 -2 6 -6 30 -8 24 -3 48 -1 55 3 8 5 3 8 -11 8 -22 0 -23 3 -20 58
l3 57 34 0 c19 0 36 6 38 12 7 19 -25 27 -53 15 -15 -7 -24 -8 -24 -2 0 12
-26 12 -54 1z"/>
<path d="M6685 480 c-11 -5 -14 -9 -7 -9 8 -1 12 -21 12 -65 0 -42 -4 -66 -12
-69 -7 -3 10 -5 37 -5 28 0 44 2 38 5 -9 3 -13 29 -13 79 0 79 -5 85 -55 64z"/>
<path d="M6795 480 c-11 -5 -14 -9 -7 -9 10 -1 13 -18 10 -70 -3 -64 -1 -70
18 -74 11 -2 29 0 40 4 10 4 13 8 7 8 -20 1 -18 117 2 125 36 13 47 -4 43 -70
l-3 -64 30 0 30 0 -5 68 c-3 37 -9 73 -13 80 -10 15 -69 16 -85 0 -9 -9 -12
-9 -12 0 0 14 -26 15 -55 2z"/>
<path d="M7015 480 c-11 -5 -14 -9 -7 -9 10 -1 13 -19 11 -68 -1 -38 1 -69 4
-70 4 -2 22 -3 40 -2 17 0 26 3 20 6 -21 8 -17 119 3 127 29 11 44 -13 44 -70
0 -36 -4 -54 -12 -55 -7 -1 -2 -4 12 -8 26 -7 85 -1 63 6 -8 3 -13 25 -13 59
0 73 -12 94 -53 94 -18 0 -38 -5 -45 -12 -9 -9 -12 -9 -12 0 0 14 -26 15 -55
2z"/>
<path d="M7251 473 c-12 -10 -24 -35 -28 -55 -5 -32 -1 -41 25 -68 21 -21 40
-30 62 -30 22 0 41 9 62 30 26 27 30 36 25 68 -8 47 -38 72 -87 72 -21 0 -47
-8 -59 -17z m90 -20 c13 -34 5 -91 -15 -111 -12 -12 -17 -11 -36 8 -19 19 -21
30 -17 67 7 65 48 87 68 36z"/>
<path d="M7412 478 c8 -7 30 -46 48 -85 18 -40 38 -73 44 -73 6 0 24 34 40 75
16 42 36 80 45 85 12 7 6 9 -24 9 -22 0 -34 -3 -27 -6 16 -6 15 -23 -4 -69
l-16 -39 -20 49 c-15 39 -16 51 -6 57 8 5 -9 9 -41 9 -46 0 -52 -2 -39 -12z"/>
<path d="M7629 469 c-23 -23 -21 -42 4 -47 12 -3 17 4 17 21 0 25 23 42 41 31
5 -3 9 -18 9 -35 0 -24 -4 -29 -23 -29 -58 0 -94 -73 -43 -86 13 -3 34 0 46 6
16 9 25 9 33 1 15 -15 30 -14 53 4 13 11 14 14 4 13 -12 -2 -16 11 -20 57 -3
33 -9 66 -13 73 -13 20 -84 15 -108 -9z m71 -94 c0 -18 -5 -25 -20 -25 -20 0
-28 28 -13 43 15 16 33 6 33 -18z"/>
<path d="M7935 480 c-11 -5 -14 -9 -7 -9 8 -1 12 -21 12 -65 0 -42 -4 -66 -12
-69 -7 -3 10 -5 37 -5 28 0 44 2 38 5 -9 3 -13 29 -13 79 0 79 -5 85 -55 64z"/>
<path d="M8068 476 c-24 -18 -39 -63 -32 -92 8 -31 50 -64 81 -64 81 0 124 90
68 145 -27 28 -88 34 -117 11z m82 -15 c17 -32 12 -96 -8 -114 -30 -27 -55 -1
-55 56 0 67 38 103 63 58z"/>
<path d="M8250 481 c-21 -6 -22 -8 -7 -14 13 -5 17 -18 17 -66 0 -38 -4 -61
-12 -64 -7 -3 7 -6 32 -6 27 0 40 3 32 8 -21 13 -12 111 11 125 15 9 21 7 33
-8 17 -25 19 -112 2 -119 -7 -3 7 -5 32 -5 25 0 39 2 33 5 -9 3 -13 26 -13 67
0 35 -5 67 -12 74 -15 15 -53 16 -79 2 -13 -7 -19 -7 -19 0 0 11 -13 11 -50 1z"/>
<path d="M1088 433 c338 -2 887 -2 1220 0 334 1 58 2 -613 2 -671 0 -944 -1
-607 -2z"/>
<path d="M9277 433 c397 -2 1049 -2 1450 0 400 1 76 2 -722 2 -797 0 -1125 -1
-728 -2z"/>
</g>
</svg>
